#!OML:ASF X:\für Bonn\!DataBase\2005_08_10_Bjorn_Final\c3d\bjorn.ASF
:FULLY-SPECIFIED
:DEGREES
249
root -0.0901763 19.2959 -0.274954 -180.425 25.8827 183.107
lowerback -8.08814 3.12996 2.16949
upperback 5.2103 4.43535 -3.21141
thorax 10.578 2.51482 -3.89476
lowerneck 0.673311 0.364913 7.45747
upperneck 21.0314 2.10911 -1.859
head 6.35918 2.0901 -1.66984
rclavicle 1.11319e-014 4.45278e-014
rhumerus -277.37 15.1854 244.118
rradius 11.1643
rwrist 62.9565
rhand -26.3356 13.532
rfingers 7.12502
rthumb 0.221613 -16.4476
lclavicle 1.11319e-014 4.45278e-014
lhumerus 63.6791 -15.7797 90.9102
lradius 44.7982
lwrist 43.9576
lhand -49.5746 -0.437947
lfingers 7.12502
lthumb -22.1807 28.3095
rfemur 0.53562 7.16288 4.7736
rtibia 36.0157
rfoot 11.1861 18.3523
rtoes -23.5723
lfemur -9.85893 6.63667 -11.9966
ltibia 27.4382
lfoot -9.47571 -16
ltoes -3.15024
250
root -0.0830052 19.2933 -0.262018 -180.482 25.8442 183.144
lowerback -8.05032 3.12651 2.2302
upperback 5.25364 4.42463 -3.19244
thorax 10.6063 2.51513 -3.91131
lowerneck 0.923526 0.323517 7.50088
upperneck 20.8821 2.07651 -1.89011
head 6.26751 2.07441 -1.69124
rclavicle -2.98177e-015 -3.18055e-014
rhumerus -277.211 15.1958 245.201
rradius 11.3732
rwrist 62.063
rhand -26.6517 13.6764
rfingers 7.12502
rthumb -0.083645 -16.3033
lclavicle -2.98177e-015 -3.18055e-014
lhumerus 63.4108 -15.8102 90.8178
lradius 45.1192
lwrist 43.7691
lhand -49.4605 -0.772345
lfingers 7.12502
lthumb -22.0712 27.9881
rfemur 0.580989 7.14871 4.85296
rtibia 36.0493
rfoot 11.1388 18.3973
rtoes -23.5687
lfemur -9.81321 6.35949 -11.942
ltibia 27.4454
lfoot -9.42762 -15.739
ltoes -2.92438
251
root -0.0753366 19.2916 -0.24888 -180.574 25.8185 183.147
lowerback -8.00519 3.12148 2.25206
upperback 5.31952 4.41865 -3.16937
thorax 10.6521 2.51601 -3.9005
lowerneck 1.12522 0.29684 7.49057
upperneck 20.7421 2.05335 -1.88489
head 6.18695 2.06041 -1.69108
rclavicle -1.64991e-014 -3.49861e-014
rhumerus -276.998 15.226 246.474
rradius 11.6004
rwrist 60.9681
rhand -27.0283 13.8584
rfingers 7.12502
rthumb -0.447403 -16.1209
lclavicle -1.64991e-014 -3.49861e-014
lhumerus 63.1793 -15.8203 90.7671
lradius 45.4105
lwrist 43.5181
lhand -49.3463 -1.15389
lfingers 7.12502
lthumb -21.9615 27.6194
rfemur 0.64326 7.17293 4.90473
rtibia 36.0817
rfoot 11.0753 18.4475
rtoes -23.6196
lfemur -9.74809 6.07984 -11.9229
ltibia 27.4587
lfoot -9.41114 -15.4304
ltoes -2.74372
252
root -0.0670968 19.2883 -0.234327 -180.64 25.7841 183.169
lowerback -7.9657 3.1216 2.30139
upperback 5.36942 4.41689 -3.16229
thorax 10.6878 2.52119 -3.92176
lowerneck 1.33571 0.257116 7.55061
upperneck 20.6204 2.01866 -1.90648
head 6.11136 2.04619 -1.71169
rclavicle -2.28602e-014 1.27222e-014
rhumerus -276.808 15.2298 247.741
rradius 11.849
rwrist 59.7475
rhand -27.4762 14.0983
rfingers 7.12502
rthumb -0.880019 -15.8796
lclavicle -2.28602e-014 1.27222e-014
lhumerus 62.9338 -15.8628 90.6146
lradius 45.7261
lwrist 43.3006
lhand -49.2987 -1.53518
lfingers 7.12502
lthumb -21.9158 27.2435
rfemur 0.691733 7.16793 4.97215
rtibia 36.1086
rfoot 11.0684 18.4805
rtoes -23.4551
lfemur -9.70895 5.77974 -11.8834
ltibia 27.4765
lfoot -9.36525 -15.119
ltoes -2.50182
253
root -0.0577734 19.2857 -0.220014 -180.709 25.757 183.203
lowerback -7.93805 3.11949 2.34661
upperback 5.43606 4.41136 -3.1369
thorax 10.747 2.52395 -3.92068
lowerneck 1.51467 0.222484 7.57826
upperneck 20.4964 1.98803 -1.94033
head 6.04031 2.0289 -1.7304
rclavicle -1.37161e-014 9.54166e-015
rhumerus -276.588 15.2627 249.134
rradius 12.129
rwrist 58.3959
rhand -27.9188 14.336
rfingers 7.12502
rthumb -1.30751 -15.6398
lclavicle -1.37161e-014 9.54166e-015
lhumerus 62.7078 -15.9006 90.4758
lradius 46.0439
lwrist 43.0393
lhand -49.2876 -1.9769
lfingers 7.12502
lthumb -21.9052 26.803
rfemur 0.756775 7.19177 5.06144
rtibia 36.1301
rfoot 10.9945 18.5228
rtoes -23.4918
lfemur -9.66519 5.56387 -11.8216
ltibia 27.5003
lfoot -9.29523 -14.895
ltoes -2.24362
254
root -0.0476256 19.2831 -0.204257 -180.777 25.739 183.227
lowerback -7.89516 3.12551 2.37444
upperback 5.48916 4.41897 -3.11631
thorax 10.782 2.53145 -3.91353
lowerneck 1.72198 0.185678 7.62093
upperneck 20.3539 1.95499 -1.96369
head 5.9588 2.01231 -1.7485
rclavicle -4.45278e-014 3.97569e-014
rhumerus -276.352 15.2526 250.754
rradius 12.473
rwrist 56.8294
rhand -28.3254 14.5802
rfingers 7.12502
rthumb -1.70016 -15.3927
lclavicle -4.45278e-014 3.97569e-014
lhumerus 62.4764 -15.9656 90.2729
lradius 46.3783
lwrist 42.7382
lhand -49.308 -2.31637
lfingers 7.12502
lthumb -21.9248 26.4613
rfemur 0.805272 7.21751 5.14646
rtibia 36.1489
rfoot 10.928 18.5823
rtoes -23.5563
lfemur -9.62648 5.26426 -11.7725
ltibia 27.5288
lfoot -9.26052 -14.5876
ltoes -2.02128
255
root -0.0363561 19.2798 -0.187914 -180.841 25.6967 183.26
lowerback -7.85028 3.11695 2.39545
upperback 5.53939 4.40544 -3.08186
thorax 10.8086 2.52709 -3.89154
lowerneck 1.92965 0.147543 7.62842
upperneck 20.2164 1.92336 -1.99755
head 5.87852 1.99322 -1.76393
rclavicle -5.48646e-014 2.8625e-014
rhumerus -276.184 15.2463 252.201
rradius 12.8355
rwrist 55.3907
rhand -28.6863 14.9239
rfingers 7.12502
rthumb -2.04875 -15.046
lclavicle -5.48646e-014 2.8625e-014
lhumerus 62.208 -16.0137 90.09
lradius 46.7349
lwrist 42.4071
lhand -49.2994 -2.72876
lfingers 7.12502
lthumb -21.9166 26.0498
rfemur 0.876584 7.23615 5.24497
rtibia 36.1567
rfoot 10.8588 18.6193
rtoes -23.5186
lfemur -9.5972 4.96807 -11.7047
ltibia 27.567
lfoot -9.19909 -14.3291
ltoes -1.67386
